<?xml version="1.0" encoding="utf-8"?>
<!-- Generator: Adobe Illustrator 19.0.0, SVG Export Plug-In . SVG Version: 6.00 Build 0)  -->
<svg version="1.1" id="Ebene_1" xmlns="http://www.w3.org/2000/svg" xmlns:xlink="http://www.w3.org/1999/xlink" x="0px" y="0px"
	 viewBox="0 0 411.5 73" style="enable-background:new 0 0 411.5 73;" xml:space="preserve">
<style type="text/css">
	.st0{fill:#FFFFFF;}
</style>
<g id="XMLID_1_">
	<path id="XMLID_42_" class="st0" d="M41.6,11.4L38.8,14c-3.2-3.3-6.5-4.5-10.9-4.5c-6.7,0-11.8,3.7-11.8,9.3
		c0,4.5,2.6,6.9,10.1,9.3C34,30.6,39,34.1,39,41.7c0,6.6-4.8,15.7-18.5,15.7c-6.9,0-11.6-2.6-15.2-6.4l2.8-2.6
		c3,3.3,6.7,5.3,12.4,5.3c9.3,0,14-5.8,14-11.8c0-5-2.8-7.7-10.2-10.2c-8.6-2.7-12.6-6.1-12.6-12.6c0-5.8,4.9-13.2,16.2-13.2
		C34,5.8,38.2,7.9,41.6,11.4z"/>
	<path id="XMLID_44_" class="st0" d="M52.4,47.2c-0.7,4.5,0.6,6.6,4.5,6.6c2.1,0,4.1-0.7,6.1-1.8l1.5,3.1c-2.6,1.5-5.2,2.3-8.2,2.3
		c-5.8,0-9-3.6-8-10.1l3.6-25.4h-6.4l0.5-3.4h6.5l2.1-9.3l3.4-0.4l-1.4,9.6h9.8l-0.9,3.4H56L52.4,47.2z"/>
	<path id="XMLID_46_" class="st0" d="M82.5,56.9c-3.9,8.3-8.2,12.8-17.7,14.6l-0.2-3.4c8-1.8,10.4-4.9,13.9-11.6l-1.7,0.1l-7.8-38.2
		h4.5l6.6,35l16.3-35h4.5L82.5,56.9z"/>
	<path id="XMLID_48_" class="st0" d="M107.3,50.2c-0.3,2.4,0.3,3.6,2.4,3.6c0.9,0,1.9-0.2,2.8-0.6l0.9,3.2c-1.5,0.7-3,1-4.5,1
		c-4.2,0-6.6-2.5-5.8-7.9l6.6-46.6l4.2-0.5L107.3,50.2z"/>
	<path id="XMLID_50_" class="st0" d="M124.5,41.6V42c0,8.3,3.9,11.8,9.8,11.8c4.1,0,7.2-1.3,10.7-3.9l2,3c-4,2.8-8.1,4.5-13,4.5
		c-8.8,0-13.9-5.5-13.9-15.3c0-10.7,5.5-24.5,19.1-24.5c7.4,0,11.7,4,11.7,9.2C150.9,36.6,140.1,40.4,124.5,41.6z M124.7,38.3
		c14.2-1.2,21.8-4.4,21.8-11.3c0-3-2.1-5.8-7.2-5.8C129.9,21.1,125.8,30.2,124.7,38.3z"/>
	<path id="XMLID_53_" class="st0" d="M157.5,18.5h9.6l0.9,3.6c1.8-1.4,3.7-2.4,5.7-3.2c2-0.8,4.2-1.2,6.5-1.2c2.6,0,4.9,0.3,6.9,1
		c2,0.6,3.6,1.8,4.7,3.4c1.8-1.4,3.7-2.5,5.8-3.3c2.1-0.8,4.3-1.2,6.8-1.2c2,0,3.9,0.2,5.5,0.7c1.7,0.4,3.1,1.2,4.3,2.3
		s2.1,2.6,2.7,4.4c0.6,1.8,1,4.2,1,7v24.5h-11.4V32.1c0-2.2-0.4-3.8-1.3-4.7c-0.9-0.9-2.2-1.4-4-1.4c-1.4,0-2.8,0.2-4,0.6
		c-1.2,0.4-2.4,1-3.5,1.8c0,0.3,0,0.5,0.1,0.8c0,0.3,0,0.5,0,0.8v26.6h-11.4V30.9c0-1.8-0.4-3.1-1.3-3.8s-2.2-1.1-4-1.1
		c-1.6,0-3,0.3-4.4,0.8c-1.3,0.5-2.6,1.2-3.8,2v27.8h-11.5V18.5z"/>
	<path id="XMLID_55_" class="st0" d="M245.6,33.6v-0.7c0-1.2-0.2-2.3-0.5-3.1c-0.3-0.8-0.8-1.5-1.4-2s-1.4-0.8-2.3-1
		c-0.9-0.2-2-0.3-3.2-0.3c-1,0-2,0.1-3.1,0.2c-1.1,0.1-2.1,0.3-3.1,0.6s-1.9,0.5-2.8,0.8c-0.9,0.3-1.7,0.6-2.3,0.9l-1.9-7.8
		c0.9-0.5,1.9-0.9,3.1-1.3c1.2-0.4,2.4-0.8,3.6-1.1s2.5-0.5,3.8-0.7c1.3-0.2,2.6-0.3,3.8-0.3c2.6,0,5,0.2,7.1,0.7
		c2.1,0.5,4,1.3,5.5,2.4c1.5,1.1,2.7,2.7,3.6,4.6c0.9,2,1.3,4.4,1.3,7.4v23.7h-10.2l-0.7-3.9c-0.5,0.4-1.2,0.9-1.9,1.4
		c-0.8,0.5-1.7,1-2.7,1.5c-1,0.5-2.1,0.8-3.3,1.2c-1.2,0.3-2.5,0.5-3.9,0.5c-2.1,0-3.9-0.3-5.4-0.9c-1.6-0.6-2.9-1.4-4-2.3
		s-1.9-2.2-2.4-3.5c-0.5-1.3-0.8-2.8-0.8-4.3c0-1.8,0.4-3.4,1.3-4.9c0.9-1.5,2.1-2.9,3.6-4c1.5-1.1,3.4-2,5.5-2.7
		c2.1-0.7,4.4-1,6.9-1H245.6z M237.7,49.4c1,0,1.9-0.1,2.7-0.3c0.9-0.2,1.6-0.4,2.3-0.7c0.7-0.3,1.3-0.5,1.8-0.8
		c0.5-0.3,0.9-0.5,1.1-0.6v-7h-5.9c-1.3,0-2.5,0.2-3.3,0.6c-0.9,0.4-1.5,0.9-2,1.4c-0.5,0.6-0.8,1.1-1,1.7c-0.2,0.6-0.3,1.1-0.3,1.4
		c0,1.3,0.4,2.3,1.3,3C235.3,49.1,236.4,49.4,237.7,49.4z"/>
	<path id="XMLID_58_" class="st0" d="M263,18.5h10l0.8,3.4c0.7-0.6,1.4-1.2,2.2-1.7c0.8-0.5,1.6-1,2.5-1.3s1.9-0.6,3-0.8
		c1.1-0.2,2.4-0.3,3.8-0.3c2.4,0,4.6,0.5,6.6,1.4c2,0.9,3.6,2.3,5,4c1.4,1.7,2.5,3.8,3.2,6.2s1.1,5.2,1.1,8.2c0,3-0.4,5.7-1.1,8.2
		s-1.8,4.5-3.2,6.2c-1.4,1.7-3.1,3.1-5,4s-4.1,1.4-6.6,1.4c-1.3,0-2.4-0.1-3.4-0.2c-1-0.2-2-0.4-2.9-0.7c-0.9-0.3-1.7-0.7-2.4-1.1
		c-0.7-0.4-1.4-0.9-2.1-1.5v18H263V18.5z M289.6,37.5c0-3.7-0.6-6.6-1.9-8.5s-3.4-3-6.3-3c-1.3,0-2.6,0.2-3.8,0.7
		c-1.2,0.4-2.2,1-3.2,1.7v18.3c1,0.7,2,1.3,3.2,1.7c1.2,0.4,2.4,0.6,3.8,0.6c2.9,0,5-1,6.3-3C289,44.1,289.6,41.3,289.6,37.5z"/>
	<path id="XMLID_61_" class="st0" d="M305.4,18.5h10l0.8,3.4c0.7-0.6,1.4-1.2,2.2-1.7c0.8-0.5,1.6-1,2.5-1.3s1.9-0.6,3-0.8
		c1.1-0.2,2.4-0.3,3.8-0.3c2.4,0,4.6,0.5,6.6,1.4c2,0.9,3.6,2.3,5,4c1.4,1.7,2.5,3.8,3.2,6.2s1.1,5.2,1.1,8.2c0,3-0.4,5.7-1.1,8.2
		s-1.8,4.5-3.2,6.2c-1.4,1.7-3.1,3.1-5,4s-4.1,1.4-6.6,1.4c-1.3,0-2.4-0.1-3.4-0.2c-1-0.2-2-0.4-2.9-0.7c-0.9-0.3-1.7-0.7-2.4-1.1
		c-0.7-0.4-1.4-0.9-2.1-1.5v18h-11.5V18.5z M332,37.5c0-3.7-0.6-6.6-1.9-8.5s-3.4-3-6.3-3c-1.3,0-2.6,0.2-3.8,0.7
		c-1.2,0.4-2.2,1-3.2,1.7v18.3c1,0.7,2,1.3,3.2,1.7c1.2,0.4,2.4,0.6,3.8,0.6c2.9,0,5-1,6.3-3C331.4,44.1,332,41.3,332,37.5z"/>
	<path id="XMLID_64_" class="st0" d="M357.2,40c0.4,2.9,1.4,5.2,3.1,6.7c1.7,1.5,4,2.3,7,2.3c2.2,0,4.1-0.2,5.8-0.5
		c1.7-0.3,3.2-0.7,4.4-1l2.3,6.8c-1.6,1-3.5,1.7-5.8,2.2s-4.7,0.8-7.3,0.8c-3.3,0-6.3-0.4-8.9-1.3s-4.8-2.1-6.6-3.8
		c-1.8-1.7-3.2-3.7-4.2-6.1c-1-2.4-1.4-5.2-1.4-8.3c0-3.2,0.5-6,1.4-8.5c0.9-2.5,2.2-4.6,3.9-6.3s3.8-3,6.2-3.9
		c2.4-0.9,5.1-1.4,8-1.4c2.3,0,4.4,0.4,6.4,1.1c2,0.7,3.7,1.8,5.2,3.1c1.5,1.3,2.7,3,3.5,4.8c0.9,1.9,1.3,4,1.3,6.3V40H357.2z
		 M364.7,25.6c-1,0-1.8,0.1-2.6,0.4c-0.8,0.2-1.5,0.7-2.1,1.2c-0.6,0.6-1.1,1.4-1.6,2.3c-0.4,1-0.7,2.2-1,3.6h13.7
		c0-1.4-0.2-2.5-0.5-3.5c-0.4-1-0.8-1.7-1.4-2.3c-0.6-0.6-1.3-1-2.1-1.3C366.4,25.7,365.6,25.6,364.7,25.6z"/>
	<path id="XMLID_67_" class="st0" d="M385.6,18.5h9.6l1.1,5.2c1.5-2.2,3.1-3.7,4.8-4.6c1.7-0.9,3.6-1.4,5.5-1.4c0.5,0,1,0,1.6,0
		c0.6,0,1.1,0.1,1.6,0.1l-0.6,9.2c-0.7-0.1-1.3-0.2-2-0.2s-1.4-0.1-2.2-0.1c-1.5,0-3,0.4-4.3,1.3c-1.3,0.9-2.5,2-3.6,3.5v25h-11.5
		V18.5z"/>
</g>
<g id="XMLID_41_">
</g>
<g id="XMLID_69_">
</g>
<g id="XMLID_70_">
</g>
<g id="XMLID_71_">
</g>
<g id="XMLID_72_">
</g>
<g id="XMLID_73_">
</g>
</svg>
